<?xml version="1.0" standalone="no"?>
<!DOCTYPE svg PUBLIC "-//W3C//DTD SVG 20010904//EN"
 "http://www.w3.org/TR/2001/REC-SVG-20010904/DTD/svg10.dtd">
<svg version="1.0" xmlns="http://www.w3.org/2000/svg"
 width="2008.000000pt" height="1299.000000pt" viewBox="0 0 2008.000000 1299.000000"
 preserveAspectRatio="xMidYMid meet">

<g transform="translate(0.000000,1299.000000) scale(0.100000,-0.100000)"
fill="#000000" stroke="none">
<path d="M4915 12610 c-92 -10 -204 -45 -235 -73 -41 -35 -99 -113 -116 -154
-27 -63 -43 -193 -48 -391 -3 -103 -8 -1294 -11 -2647 -8 -4001 -15 -6273 -21
-7225 l-5 -896 26 -129 c24 -115 31 -136 65 -180 49 -63 94 -106 144 -134 38
-22 43 -22 315 -16 152 3 348 13 436 21 88 7 297 25 465 39 168 14 323 28 345
30 22 3 195 19 385 35 667 57 1046 90 1150 100 58 6 236 22 395 35 160 14 470
40 690 60 220 19 558 48 750 65 193 16 370 32 395 35 25 3 200 19 390 35 190
16 527 45 750 65 223 20 556 49 740 65 537 46 901 78 1260 110 814 72 1027 90
1205 105 217 19 295 35 343 71 29 23 48 27 150 35 132 10 153 14 200 36 41 19
55 52 46 109 l-6 42 -120 -6 -120 -5 6 2114 c13 4665 18 6914 13 6909 -8 -8
-17 -2191 -23 -5640 -4 -1812 -10 -3313 -13 -3335 -6 -39 -8 -40 -56 -47 -27
-4 -77 -8 -112 -10 -51 -2 -65 1 -76 16 -12 17 -22 17 -158 7 -341 -27 -389
-31 -482 -37 -90 -7 -99 -9 -107 -30 -7 -18 -19 -23 -69 -28 -34 -3 -88 -9
-121 -12 -58 -6 -72 0 -50 22 14 14 4 34 -29 61 -29 23 -76 22 -68 -1 3 -7 -1
-20 -9 -31 -8 -10 -14 -27 -14 -37 0 -10 -7 -21 -15 -25 -23 -8 -28 2 -13 26
11 18 10 24 -10 43 -21 21 -24 22 -49 8 -32 -18 -46 -47 -17 -36 32 13 38 12
42 -8 5 -21 -7 -35 -34 -40 -28 -6 -257 -24 -393 -32 -111 -6 -113 -6 -107 14
10 31 -13 97 -44 127 l-27 26 -122 -9 c-67 -6 -130 -8 -140 -5 -23 6 -62 -40
-93 -107 -14 -31 -30 -50 -42 -52 -26 -4 -32 -25 -9 -31 10 -3 3 -5 -14 -6
-33 -1 -33 -1 -33 47 0 55 -30 126 -58 141 -12 6 -42 8 -69 5 -26 -3 -86 -7
-133 -9 -47 -1 -92 -6 -101 -9 -27 -12 -72 -104 -66 -135 l6 -28 -97 -12 c-53
-6 -158 -15 -232 -21 -74 -5 -270 -21 -435 -35 -165 -14 -358 -30 -430 -36
-71 -5 -211 -16 -310 -24 -177 -15 -565 -46 -800 -65 -141 -11 -1019 -85
-1185 -100 -63 -6 -295 -26 -515 -45 -220 -19 -440 -39 -490 -45 -49 -5 -151
-14 -225 -20 -160 -13 -312 -26 -510 -45 -80 -8 -219 -21 -310 -30 -213 -19
-742 -70 -1035 -98 l-230 -23 -5 -124 -5 -125 -135 0 c-114 0 -141 3 -175 20
-59 29 -121 97 -147 163 l-23 57 2 5030 c2 2767 7 5298 11 5625 8 580 9 596
31 651 26 69 89 142 144 171 79 40 120 40 572 3 99 -8 223 -17 275 -20 52 -3
230 -17 395 -30 165 -13 368 -29 450 -35 140 -10 354 -27 640 -50 66 -6 215
-17 330 -25 116 -9 291 -22 390 -30 232 -20 1024 -81 2200 -170 182 -14 409
-31 505 -39 96 -8 247 -20 335 -26 88 -6 210 -15 270 -20 124 -11 412 -33
1105 -85 261 -19 583 -44 715 -55 132 -11 328 -26 435 -34 724 -55 1132 -88
1179 -96 30 -6 71 -18 90 -28 45 -23 102 -97 125 -163 23 -64 31 -58 9 7 -22
65 -52 111 -100 155 -54 49 -127 65 -398 84 -121 9 -301 23 -400 31 -99 7
-358 27 -575 44 -217 16 -444 34 -505 40 -60 5 -265 21 -455 35 -190 13 -363
27 -385 30 -22 3 -195 16 -385 30 -190 14 -394 30 -455 35 -60 6 -288 24 -505
40 -217 17 -597 46 -845 65 -247 20 -625 49 -840 65 -214 16 -437 34 -495 40
-58 5 -235 19 -395 30 -159 12 -362 27 -450 35 -88 8 -290 24 -450 35 -159 11
-309 22 -332 25 -22 3 -245 21 -495 40 -708 54 -1228 94 -1283 100 -119 12
-154 13 -220 5z m-258 -632 c-3 -8 -6 -5 -6 6 -1 11 2 17 5 13 3 -3 4 -12 1
-19z m8947 -10217 c3 -5 -12 -11 -34 -13 -22 -2 -40 0 -40 3 0 15 66 24 74 10z
m-1114 -91 c0 -5 -2 -10 -4 -10 -3 0 -8 5 -11 10 -3 6 -1 10 4 10 6 0 11 -4
11 -10z m-460 -40 c0 -5 -7 -10 -15 -10 -8 0 -15 5 -15 10 0 6 7 10 15 10 8 0
15 -4 15 -10z m-6323 -556 c-3 -3 -12 -4 -19 -1 -8 3 -5 6 6 6 11 1 17 -2 13
-5z m38 -34 c-3 -5 -13 -10 -21 -10 -8 0 -14 5 -14 10 0 6 9 10 21 10 11 0 17
-4 14 -10z"/>
<path d="M6423 10653 c-23 -23 -38 -59 -76 -193 -27 -91 -59 -200 -73 -242
-13 -42 -24 -83 -24 -91 0 -20 33 -47 58 -47 29 0 49 33 70 116 l18 69 166 3
166 2 16 -67 c10 -38 23 -79 30 -93 15 -31 51 -37 78 -14 26 24 26 25 -51 307
-12 42 -30 112 -41 155 -31 115 -42 122 -190 122 -115 0 -119 -1 -147 -27z
m222 -83 c12 -20 54 -184 49 -192 -7 -11 -251 -10 -258 1 -6 9 35 146 54 181
9 17 20 20 80 20 38 0 72 -5 75 -10z"/>
<path d="M7090 10663 c-44 -29 -82 -67 -92 -93 -13 -34 -17 -337 -5 -375 16
-49 53 -91 100 -113 39 -18 60 -20 208 -18 180 2 185 3 255 68 48 44 55 75 26
101 -28 25 -46 21 -97 -23 l-46 -40 -150 0 c-146 0 -151 1 -174 25 -24 23 -25
28 -25 178 0 141 2 157 21 181 l20 26 154 0 153 0 51 -46 51 -46 30 22 c16 12
30 30 30 40 0 27 -50 81 -100 108 -39 20 -54 22 -213 21 -142 0 -176 -3 -197
-16z"/>
<path d="M7890 10665 c-33 -18 -44 -39 -79 -160 -16 -55 -41 -140 -56 -190
-54 -181 -55 -188 -39 -212 18 -29 69 -31 83 -5 6 11 19 52 29 93 l19 74 165
3 165 2 11 -37 c7 -21 17 -58 23 -83 14 -58 25 -70 60 -70 22 0 32 7 41 25 13
29 15 18 -64 315 -62 235 -56 217 -81 240 -18 18 -35 20 -136 20 -79 -1 -124
-5 -141 -15z m208 -97 c13 -17 52 -179 46 -190 -7 -10 -251 -11 -258 0 -4 7
44 168 58 190 10 17 141 16 154 0z"/>
<path d="M8467 10662 c-33 -37 -17 -77 33 -84 l25 -3 3 -202 2 -203 -23 0
c-49 0 -74 -61 -39 -93 15 -14 49 -16 240 -16 l223 1 46 31 c79 53 87 77 91
257 4 175 -4 218 -51 268 -55 58 -76 62 -317 62 -197 0 -218 -2 -233 -18z
m467 -111 l27 -29 -3 -155 c-4 -206 4 -197 -180 -197 l-138 0 0 205 0 205 133
0 133 0 28 -29z"/>
<path d="M9264 10666 c-38 -21 -55 -39 -77 -80 -20 -38 -22 -55 -21 -216 0
-214 7 -234 106 -288 33 -19 54 -21 245 -21 114 0 218 3 230 6 26 6 39 52 23
82 -10 20 -19 21 -220 21 -132 0 -218 4 -233 11 -37 17 -53 55 -49 117 l2 22
205 0 205 0 11 24 c7 14 9 36 5 50 l-6 26 -208 2 -207 3 -3 48 c-3 43 0 51 28
77 l32 30 212 0 c227 0 236 2 236 50 0 14 -5 31 -12 38 -17 17 -474 15 -504
-2z"/>
<path d="M9987 10659 c-20 -11 -49 -38 -65 -61 l-27 -41 -3 -233 c-3 -206 -1
-233 14 -248 12 -12 25 -15 48 -10 17 3 33 8 36 11 3 3 7 106 10 230 l5 225
29 24 c25 22 36 25 100 22 l71 -3 3 -199 c1 -127 6 -204 13 -213 6 -7 26 -13
44 -13 18 0 38 6 44 13 7 9 12 86 13 213 l3 199 76 3 76 3 32 -36 31 -36 0
-215 0 -214 25 -12 c19 -8 31 -8 50 0 l26 12 -3 249 c-4 297 1 283 -120 343
-10 4 -125 8 -255 8 -217 -1 -241 -3 -276 -21z"/>
<path d="M10773 10674 c-10 -4 -13 -73 -13 -295 l0 -289 25 -16 c21 -14 31
-15 51 -6 l24 12 -2 297 -3 298 -35 2 c-19 1 -41 0 -47 -3z"/>
<path d="M11148 10665 c-32 -18 -51 -69 -118 -310 -5 -16 -20 -72 -35 -123
-31 -111 -30 -133 8 -146 42 -15 59 2 80 80 29 107 12 99 198 99 l163 0 21
-80 c25 -98 29 -105 64 -105 56 0 63 35 32 153 -11 39 -31 117 -46 172 -15 55
-33 125 -41 155 -23 88 -24 90 -54 105 -40 20 -234 20 -272 0z m239 -175 c34
-130 43 -120 -102 -120 -101 0 -127 3 -131 15 -5 12 37 160 53 188 3 4 39 7
81 5 l76 -3 23 -85z"/>
<path d="M6262 9778 c-9 -9 -12 -71 -12 -237 0 -222 0 -225 26 -268 14 -24 43
-55 64 -68 38 -24 46 -25 210 -25 194 0 222 8 279 77 l31 38 -2 245 -3 245
-33 3 c-61 6 -62 2 -62 -237 l0 -217 -28 -27 -29 -28 -153 3 -153 3 -20 27
c-18 25 -21 47 -26 250 l-6 223 -35 3 c-19 2 -41 -3 -48 -10z"/>
<path d="M6970 9501 c0 -159 3 -296 6 -305 8 -20 67 -22 83 -3 7 9 12 97 13
253 l3 239 170 3 c182 3 204 -2 224 -45 7 -15 11 -101 11 -231 0 -149 3 -211
12 -220 7 -7 27 -12 45 -12 26 0 34 5 38 23 4 12 5 124 3 248 l-3 226 -28 36
c-55 72 -76 77 -342 77 l-235 0 0 -289z"/>
<path d="M7706 9774 c-11 -28 -7 -554 4 -575 12 -22 68 -27 88 -7 9 9 12 88
12 293 0 205 -3 284 -12 293 -18 18 -85 15 -92 -4z"/>
<path d="M7925 9766 c-15 -23 -15 -30 5 -93 12 -37 26 -81 31 -98 74 -261 102
-341 127 -367 25 -27 29 -28 128 -28 151 0 139 -17 254 360 17 58 38 122 46
143 28 74 14 107 -43 107 -40 0 -35 10 -103 -210 -29 -91 -62 -194 -74 -230
l-23 -65 -50 -3 c-57 -3 -63 2 -83 68 -7 25 -21 70 -31 100 -10 30 -35 109
-55 175 -20 66 -42 130 -50 143 -19 30 -59 29 -79 -2z"/>
<path d="M8738 9772 c-41 -25 -76 -88 -84 -149 -3 -30 -4 -114 -2 -186 5 -149
15 -179 75 -224 l36 -28 245 0 246 0 6 25 c4 14 3 36 -1 48 -8 22 -11 22 -218
22 -130 0 -219 4 -234 11 -36 16 -60 64 -53 105 l7 34 203 0 203 0 12 26 c12
27 6 64 -13 77 -6 4 -98 7 -204 6 -107 0 -197 2 -200 6 -3 3 -5 25 -4 48 2 33
10 48 35 70 l31 27 213 0 213 0 11 24 c7 14 9 36 5 50 l-6 26 -248 -1 c-208
-1 -251 -3 -274 -17z"/>
<path d="M9407 9779 c-42 -25 -47 -55 -47 -316 1 -273 3 -283 58 -283 42 0 52
22 52 109 l0 71 123 0 122 0 90 -90 c76 -76 94 -90 122 -90 33 0 53 21 53 54
0 9 -28 43 -62 76 -33 33 -59 62 -57 63 2 2 20 16 40 31 54 40 83 112 77 196
-6 80 -26 122 -80 160 l-41 30 -216 0 c-128 0 -223 -5 -234 -11z m438 -119
c24 -25 29 -38 28 -81 0 -34 -7 -60 -20 -78 l-20 -26 -181 -3 -181 -2 -3 87
c-5 147 -24 133 176 133 l172 0 29 -30z"/>
<path d="M10255 9773 c-74 -39 -105 -88 -105 -167 0 -46 5 -61 33 -97 55 -72
74 -78 264 -81 l167 -3 23 -34 c29 -43 29 -52 -2 -85 -24 -26 -25 -26 -175
-26 l-151 0 -55 35 c-58 37 -82 43 -102 23 -30 -30 7 -89 84 -134 43 -25 45
-26 236 -22 181 3 195 4 224 25 78 56 84 195 11 272 -52 55 -75 61 -251 61
-89 0 -166 4 -172 8 -21 14 -35 53 -29 82 11 52 38 60 201 60 l147 0 48 -45
c49 -46 75 -55 97 -33 34 34 -3 106 -79 154 -37 23 -46 24 -211 24 -138 -1
-179 -4 -203 -17z"/>
<path d="M10887 9784 c-4 -4 -7 -137 -7 -294 0 -317 -1 -314 62 -308 l33 3 0
300 0 300 -40 3 c-23 2 -44 0 -48 -4z"/>
<path d="M11107 9769 c-16 -22 -12 -52 7 -68 7 -6 64 -12 127 -13 l114 -3 3
-239 c1 -156 6 -244 13 -253 14 -16 61 -17 77 -1 9 9 12 79 12 255 l0 243 120
0 119 0 7 35 c12 65 14 65 -302 65 -274 0 -283 -1 -297 -21z"/>
<path d="M11975 9768 c-28 -25 -72 -159 -160 -483 -15 -57 -7 -82 31 -91 37
-10 56 14 80 104 l21 77 165 3 c144 2 166 0 172 -13 3 -9 13 -46 21 -82 9 -37
20 -73 26 -80 17 -19 53 -16 74 7 19 21 18 48 -9 145 -32 112 -89 330 -94 355
-2 14 -16 37 -30 53 -25 27 -27 27 -148 27 -113 0 -125 -2 -149 -22z m234
-115 c34 -129 39 -157 35 -165 -3 -4 -59 -8 -125 -8 -95 0 -121 3 -125 14 -6
15 17 105 41 164 l14 32 75 0 75 0 10 -37z"/>
<path d="M12569 9761 l-29 -29 0 -257 c0 -158 4 -264 10 -276 12 -22 59 -26
78 -7 7 7 12 43 12 90 l0 78 128 0 127 0 90 -90 c75 -76 95 -90 121 -90 27 0
34 5 43 31 10 30 8 34 -51 95 l-61 64 46 40 c105 93 100 277 -10 353 l-39 27
-218 0 -218 0 -29 -29z m448 -97 c30 -22 33 -30 33 -75 0 -59 -22 -107 -53
-114 -12 -3 -96 -4 -187 -3 l-165 3 -3 94 c-1 52 -1 100 2 108 4 10 43 13 172
13 164 0 168 -1 201 -26z"/>
<path d="M13277 9784 c-11 -12 -8 -563 3 -585 13 -23 75 -27 87 -5 4 8 6 144
3 303 l-5 288 -40 3 c-23 2 -44 0 -48 -4z"/>
<path d="M13667 9767 c-17 -14 -33 -41 -41 -72 -8 -27 -40 -135 -71 -240 -62
-210 -65 -244 -23 -259 47 -16 62 6 98 142 l11 42 164 0 164 0 10 -37 c6 -21
17 -60 24 -88 11 -39 20 -52 41 -60 66 -23 79 29 41 166 -33 115 -85 314 -92
351 -3 15 -16 39 -29 53 -22 24 -27 25 -146 25 -113 0 -125 -2 -151 -23z m232
-109 c22 -73 41 -160 35 -169 -3 -5 -59 -9 -125 -9 -94 0 -121 3 -125 14 -5
14 29 144 47 179 8 14 23 17 84 17 l73 0 11 -32z"/>
<path d="M9037 8861 l-57 -60 0 -196 0 -196 57 -60 c60 -63 88 -73 116 -41 26
28 21 51 -23 98 l-40 44 0 155 0 155 40 44 c41 45 47 64 30 97 -21 38 -62 24
-123 -40z"/>
<path d="M9286 8898 c-24 -33 -20 -44 30 -98 l45 -48 -2 -149 -2 -148 -43 -49
c-49 -53 -51 -61 -28 -94 26 -37 57 -28 118 36 l56 57 0 202 0 202 -57 56
c-63 60 -93 68 -117 33z"/>
<path d="M6355 8890 c-30 -12 -72 -60 -89 -102 -13 -30 -16 -80 -16 -248 0
-127 4 -219 10 -231 12 -22 71 -27 88 -6 7 8 12 95 14 229 3 214 3 217 28 243
23 24 29 26 103 23 l79 -3 -2 -194 c-1 -213 4 -231 60 -231 48 0 50 9 50 227
l0 203 84 0 c85 0 85 0 110 -33 26 -34 26 -34 26 -244 0 -233 1 -237 62 -231
l33 3 0 259 0 258 -42 38 c-24 21 -57 40 -74 44 -46 9 -501 6 -524 -4z"/>
<path d="M7297 8879 c-28 -21 -39 -52 -131 -368 -51 -175 -50 -201 10 -201 40
0 50 16 74 110 l16 65 167 3 166 2 10 -37 c6 -21 16 -60 24 -88 12 -46 15 -50
45 -53 19 -2 40 2 48 9 16 13 18 57 5 91 -5 13 -22 70 -37 128 -70 273 -86
326 -106 343 -17 14 -40 17 -143 17 -108 0 -125 -2 -148 -21z m227 -96 c10
-34 46 -173 46 -178 0 -3 -61 -5 -136 -5 -105 0 -135 3 -132 13 3 6 18 51 33
100 l29 87 77 0 c65 0 78 -3 83 -17z"/>
<path d="M7847 8894 c-4 -4 -7 -137 -7 -294 0 -317 -1 -314 62 -308 l33 3 0
300 0 300 -40 3 c-23 2 -44 0 -48 -4z"/>
<path d="M8050 8607 c0 -215 3 -296 12 -305 19 -19 66 -15 78 7 6 12 10 112
10 256 l0 235 181 -2 182 -3 21 -28 c20 -27 21 -43 24 -240 1 -117 4 -218 7
-224 6 -16 67 -17 83 -1 9 9 12 74 12 230 0 269 -10 302 -102 349 -33 17 -61
19 -273 19 l-235 0 0 -293z"/>
<path d="M12278 6852 c-43 -2 -71 -8 -78 -17 -7 -8 -17 -15 -22 -15 -5 0 -22
-10 -38 -22 -21 -15 -30 -30 -30 -50 0 -15 4 -28 10 -28 17 0 90 34 90 42 0 5
15 8 34 8 19 0 38 5 41 10 3 6 37 10 76 10 82 0 90 15 26 45 -32 15 -58 19
-109 17z"/>
<path d="M12265 6690 c-3 -5 -17 -10 -29 -10 -13 0 -29 -7 -36 -15 -7 -8 -19
-15 -26 -15 -8 0 -14 -4 -14 -10 0 -5 -7 -10 -15 -10 -8 0 -15 -6 -15 -13 0
-7 -15 -31 -32 -53 -18 -22 -38 -48 -44 -59 -9 -16 -24 -21 -73 -23 -35 -2
-68 1 -74 6 -7 5 -41 8 -77 7 -70 -2 -160 -35 -160 -59 0 -7 -9 -21 -20 -31
-11 -10 -20 -29 -20 -42 0 -12 -4 -23 -9 -23 -5 0 -17 -14 -25 -32 -12 -23
-16 -63 -16 -160 0 -122 -11 -164 -25 -97 -4 19 -16 34 -31 40 -14 5 -30 22
-35 38 -12 34 -40 55 -94 70 -45 12 -66 -1 -90 -56 -8 -18 -23 -50 -32 -70 -9
-21 -16 -43 -15 -50 1 -6 -2 -14 -8 -18 -6 -4 -10 -62 -10 -150 0 -88 4 -146
10 -150 6 -4 9 -12 8 -18 -1 -7 6 -30 16 -52 28 -63 34 -78 41 -109 3 -17 17
-39 30 -50 50 -45 86 -181 56 -211 -9 -9 -15 -75 -23 -240 -3 -63 -17 -77 -56
-59 -9 4 -21 9 -27 10 -30 6 -55 17 -55 25 0 5 -11 9 -24 9 -13 0 -29 7 -36
15 -7 8 -18 15 -24 15 -26 0 -134 124 -152 173 -3 9 -12 17 -19 17 -7 0 -18
14 -25 30 -13 32 -2 60 25 60 28 0 45 36 45 99 0 83 -21 121 -67 121 -34 0
-39 8 -24 38 5 9 12 25 15 35 3 9 14 20 23 23 10 3 26 10 35 15 10 5 25 9 34
9 9 0 29 9 45 21 26 18 29 26 29 72 -1 40 -6 58 -25 80 -13 15 -30 27 -38 27
-8 0 -22 9 -32 20 -19 21 -54 26 -83 11 -9 -5 -30 -15 -47 -22 -16 -7 -38 -20
-47 -28 -17 -13 -18 -5 -18 157 0 94 -4 172 -8 174 -4 2 -18 25 -30 51 -21 44
-25 48 -55 45 -38 -4 -59 -39 -63 -108 -3 -50 -13 -90 -23 -90 -3 1 -22 33
-41 73 -40 81 -62 92 -91 42 -19 -33 -26 -149 -9 -160 6 -3 10 -28 10 -55 0
-27 5 -52 10 -55 13 -8 13 -45 0 -45 -6 0 -18 13 -28 29 -9 16 -31 35 -50 42
-18 7 -38 19 -44 26 -6 7 -25 13 -44 13 -29 0 -34 -4 -39 -32 -12 -66 0 -140
26 -164 30 -27 22 -47 -24 -69 -41 -19 -42 -22 -45 -72 -2 -32 1 -53 7 -53 6
0 11 -6 11 -13 0 -14 70 -87 84 -87 4 0 20 -8 34 -19 15 -10 44 -21 65 -25 20
-4 37 -11 37 -16 0 -6 15 -10 33 -10 29 0 35 -5 47 -37 8 -22 15 -74 15 -120
0 -80 1 -83 34 -117 36 -37 76 -47 98 -25 17 17 33 2 33 -30 0 -16 7 -34 15
-41 8 -7 15 -19 15 -26 0 -8 5 -14 10 -14 6 0 10 -6 10 -14 0 -7 7 -19 15 -26
8 -7 15 -22 15 -34 0 -29 172 -203 222 -224 41 -18 53 -54 21 -66 -28 -10 -62
-31 -87 -55 -12 -11 -26 -21 -30 -21 -4 0 -26 -15 -49 -33 -23 -19 -50 -37
-59 -40 -10 -4 -18 -13 -18 -21 0 -7 -8 -17 -17 -20 -39 -15 -62 -31 -66 -47
-3 -10 -25 -27 -51 -38 -25 -12 -46 -26 -46 -32 0 -5 -20 -32 -45 -58 -40 -43
-45 -53 -45 -94 0 -25 -4 -49 -10 -52 -5 -3 -10 -37 -10 -75 0 -38 5 -72 10
-75 6 -3 10 -40 10 -81 0 -41 4 -74 8 -74 5 0 27 -16 49 -35 23 -19 50 -35 61
-35 11 0 33 -10 49 -23 30 -25 93 -57 115 -58 7 0 27 -9 43 -20 17 -10 37 -22
45 -25 8 -3 62 -29 120 -58 58 -28 110 -51 117 -51 6 0 20 -8 30 -18 11 -9 27
-17 37 -17 10 0 32 -11 50 -25 18 -14 39 -25 46 -25 7 0 45 -15 84 -34 96 -46
142 -66 153 -66 16 0 70 -29 82 -44 6 -7 21 -11 34 -9 14 3 29 -3 41 -16 11
-12 29 -21 40 -21 12 0 30 -7 40 -15 11 -8 28 -15 39 -15 10 0 32 -9 47 -20
16 -11 43 -23 62 -27 18 -3 45 -14 60 -24 14 -11 35 -19 46 -19 12 0 24 -5 27
-10 4 -6 12 -9 18 -8 12 2 88 -31 97 -42 3 -4 27 -10 55 -14 27 -3 54 -11 59
-16 6 -6 20 -10 33 -10 13 0 23 -4 23 -10 0 -5 15 -10 34 -10 19 0 38 -4 41
-10 21 -33 94 17 124 86 11 24 25 44 30 44 6 0 11 20 11 44 0 30 5 46 15 50 8
3 15 14 15 25 0 11 11 40 25 65 14 25 25 58 25 74 0 17 9 47 19 69 25 49 34
74 36 95 1 10 10 29 19 42 9 14 16 45 16 70 0 25 4 47 9 51 6 3 13 27 17 53 4
25 15 62 25 80 11 18 19 41 19 51 0 10 3 21 7 24 3 4 8 17 10 30 1 12 5 42 9
67 3 25 10 49 15 54 5 6 9 25 9 42 0 18 4 35 9 38 5 3 12 26 15 51 4 24 11 47
17 50 5 4 9 23 9 44 0 40 32 81 63 81 9 0 19 5 22 10 3 6 25 19 49 30 23 10
48 26 55 34 7 8 19 12 26 9 16 -5 75 17 75 29 0 5 11 8 24 8 14 0 28 5 31 11
4 6 13 8 21 5 7 -3 16 -1 19 4 4 6 22 10 41 10 l34 0 0 -101 0 -102 -67 7
c-38 4 -72 11 -78 17 -5 5 -28 9 -51 9 -38 0 -44 -4 -58 -32 -9 -17 -16 -41
-16 -54 0 -13 -4 -26 -10 -29 -5 -3 -10 -14 -10 -24 0 -10 -11 -39 -25 -65
-14 -26 -25 -56 -25 -66 0 -10 -4 -21 -9 -24 -5 -3 -12 -35 -16 -71 -3 -36
-11 -67 -16 -70 -5 -4 -9 -15 -9 -26 0 -10 -4 -27 -9 -37 -24 -44 -26 -55 -37
-187 -3 -38 -10 -74 -15 -79 -5 -6 -9 -38 -9 -72 0 -35 -4 -66 -10 -69 -5 -3
-10 -22 -10 -42 0 -19 -6 -49 -14 -66 -8 -18 -16 -39 -19 -49 -3 -9 -18 -22
-34 -30 -37 -18 -43 -61 -12 -94 12 -13 28 -24 36 -24 7 0 13 -4 13 -10 0 -5
16 -10 35 -10 19 0 35 -5 35 -10 0 -6 15 -9 35 -7 20 3 38 0 41 -4 3 -5 32 -9
64 -9 32 0 62 -4 65 -10 8 -14 472 -14 480 0 3 6 35 10 70 10 36 0 67 5 71 11
4 7 24 9 55 6 27 -3 51 -2 54 4 4 5 40 9 81 9 l74 0 0 34 c0 19 -5 38 -11 41
-6 4 -9 19 -8 33 2 15 0 32 -4 39 -4 6 -8 48 -9 93 -1 44 -5 83 -10 86 -4 3
-8 23 -8 44 0 21 -4 42 -10 45 -5 3 -10 37 -10 74 0 37 -3 71 -7 75 -4 4 -8
26 -10 49 -5 92 -15 162 -24 172 -12 13 -12 248 1 261 6 6 11 39 12 73 1 49
-2 66 -15 76 -20 14 -13 45 20 93 13 19 23 41 23 48 0 7 9 29 20 49 34 60 27
242 -11 275 -3 3 -9 13 -12 23 -4 11 -16 21 -27 24 -11 3 -20 12 -20 19 0 8
-9 14 -19 14 -11 0 -23 5 -26 10 -3 6 -22 10 -41 10 -19 0 -43 6 -54 12 -16
10 -24 10 -40 0 -11 -6 -47 -12 -79 -12 -33 0 -62 -4 -65 -9 -3 -4 -31 -11
-62 -14 -31 -3 -62 -11 -67 -16 -6 -6 -23 -11 -38 -11 -15 0 -31 -4 -34 -10
-3 -5 -21 -10 -38 -10 -18 0 -41 -7 -51 -15 -11 -8 -32 -15 -47 -15 -15 0 -31
-4 -34 -10 -3 -5 -17 -10 -30 -10 -13 0 -27 -4 -30 -10 -3 -5 -14 -10 -24 -10
-10 0 -24 -7 -31 -15 -18 -22 -40 -18 -40 6 0 19 18 68 41 111 5 10 9 45 9 77
0 33 5 63 11 66 6 4 8 13 5 21 -3 7 -1 16 4 19 6 4 10 17 10 30 0 13 5 27 10
30 6 3 10 28 10 55 0 27 4 51 9 55 6 3 13 27 17 53 3 26 10 52 14 57 5 6 10
24 12 40 3 27 6 30 40 31 21 0 41 3 45 7 3 4 23 7 43 7 31 0 46 9 98 59 34 32
62 62 62 67 0 5 10 14 23 19 13 6 23 21 25 38 2 15 14 38 28 52 13 13 24 31
24 39 0 9 9 21 20 28 13 8 20 24 20 44 0 17 3 34 6 37 15 15 29 226 16 239 -5
5 -8 27 -5 48 3 22 1 40 -6 44 -6 4 -11 17 -11 28 0 11 -17 38 -37 59 -35 36
-42 39 -95 39 -32 0 -58 4 -58 10 0 6 5 10 10 10 6 0 10 31 10 73 0 83 -19
133 -55 147 -13 5 -26 14 -30 19 -3 6 -30 11 -60 11 -30 0 -57 5 -60 10 -3 6
-39 10 -80 10 -41 0 -77 5 -80 10 -4 6 -119 10 -313 10 l-308 0 -59 60 c-32
33 -71 62 -87 65 -15 4 -30 11 -33 16 -8 12 -92 12 -100 -1z m146 -103 c53
-25 139 -121 139 -155 0 -12 9 -45 20 -74 30 -78 25 -178 -11 -250 -5 -10 -9
-33 -9 -52 0 -18 -7 -39 -15 -46 -8 -7 -15 -17 -15 -22 0 -12 -52 -72 -89
-103 -29 -25 -116 -47 -93 -24 16 17 15 119 -2 142 -18 23 -24 22 -38 -10 -12
-28 -12 -28 -16 15 -4 48 -9 50 -46 21 -26 -20 -27 -26 -24 -90 2 -38 1 -69
-1 -69 -17 0 -95 80 -112 113 -11 23 -29 59 -40 81 -17 31 -20 58 -20 146 0
60 4 117 9 127 5 10 16 34 24 53 59 137 113 194 202 216 57 13 70 12 137 -19z
m194 -148 c11 -17 -1 -21 -15 -4 -8 9 -8 15 -2 15 6 0 14 -5 17 -11z m318 4
c-7 -2 -19 -2 -25 0 -7 3 -2 5 12 5 14 0 19 -2 13 -5z m220 0 c-7 -2 -21 -2
-30 0 -10 3 -4 5 12 5 17 0 24 -2 18 -5z m-395 -10 c-21 -2 -57 -2 -80 0 -24
2 -7 4 37 4 44 0 63 -2 43 -4z m-788 -57 l45 -32 7 -125 c4 -68 12 -138 18
-155 16 -47 -10 -110 -67 -161 -25 -24 -52 -43 -59 -43 -7 0 -19 -2 -26 -5
-11 -4 -13 8 -10 66 5 79 -8 107 -33 73 -13 -18 -14 -17 -15 19 0 32 -3 37
-23 37 -38 0 -47 -19 -47 -97 0 -81 -7 -88 -51 -50 -23 20 -42 50 -79 128 -19
41 0 208 26 230 8 6 14 20 14 32 0 11 22 41 49 68 38 37 57 48 87 51 69 7 117
-4 164 -36z m1430 34 c0 -5 -4 -10 -10 -10 -5 0 -10 5 -10 10 0 6 5 10 10 10
6 0 10 -4 10 -10z m-13 -77 c-3 -10 -5 -4 -5 12 0 17 2 24 5 18 2 -7 2 -21 0
-30z m-59 -17 c2 -11 0 -35 -6 -55 -24 -86 -36 -140 -42 -196 -4 -33 -15 -85
-24 -115 -9 -30 -21 -71 -26 -90 -4 -19 -18 -62 -30 -95 -12 -32 -23 -80 -25
-105 -5 -58 -16 -112 -24 -125 -4 -5 -15 -37 -25 -70 -10 -33 -23 -70 -27 -83
-5 -13 -9 -36 -9 -52 0 -16 -4 -32 -10 -35 -5 -3 -10 -17 -10 -31 0 -14 -10
-44 -22 -67 -12 -23 -25 -58 -29 -77 -26 -117 -38 -160 -57 -200 -11 -25 -28
-62 -36 -82 -20 -46 -51 -54 -175 -44 -47 3 -151 11 -231 16 -80 6 -165 13
-190 15 -25 3 -117 10 -205 15 -88 6 -194 15 -235 19 -41 5 -118 14 -170 21
-52 6 -108 15 -124 20 -16 6 -42 10 -59 10 l-29 0 6 68 c7 73 23 153 37 190 5
13 9 40 9 60 0 20 7 59 15 86 8 27 15 72 15 100 0 28 12 89 25 135 14 47 25
97 25 111 0 14 4 30 8 36 12 13 31 83 34 122 l3 33 48 -40 c26 -22 54 -38 62
-35 7 3 23 0 35 -6 17 -9 33 -9 69 1 69 18 116 57 146 117 14 28 32 52 40 52
7 0 19 -16 26 -35 8 -21 36 -55 71 -84 l58 -49 94 2 c104 2 99 0 183 86 25 26
48 61 54 84 6 21 14 46 19 55 27 52 41 135 38 225 l-3 96 80 1 c44 1 107 5
140 9 33 4 154 7 270 6 198 -1 210 -2 213 -20z m139 2 c-3 -8 -6 -5 -6 6 -1
11 2 17 5 13 3 -3 4 -12 1 -19z m-2678 -165 c6 -21 11 -112 11 -202 0 -163 0
-164 -27 -200 -15 -20 -37 -47 -50 -60 -13 -13 -23 -32 -23 -42 0 -10 -4 -21
-10 -24 -15 -9 -12 -81 4 -94 11 -9 19 -1 41 40 15 29 33 59 41 66 8 8 14 20
14 26 0 7 24 33 53 59 94 85 167 108 216 67 13 -11 22 -21 20 -23 -2 -2 -29
-11 -59 -19 -82 -24 -110 -62 -114 -159 -2 -41 -7 -46 -91 -93 -27 -15 -70
-43 -94 -63 -42 -34 -44 -35 -70 -19 -14 8 -28 24 -29 34 -6 28 -41 60 -70 66
-67 12 -212 78 -212 96 0 31 83 38 189 16 l33 -8 -7 34 c-8 39 -26 62 -70 89
-35 21 -120 123 -120 142 0 26 34 18 94 -22 33 -22 61 -44 61 -48 0 -11 70
-56 77 -48 6 6 -3 70 -26 181 -20 98 -24 142 -12 163 18 34 35 26 52 -26 9
-26 26 -71 37 -100 11 -29 24 -78 28 -108 11 -95 24 -69 25 53 2 148 2 150 12
159 4 4 7 16 7 27 0 21 36 77 50 77 5 0 14 -17 19 -37z m2861 -29 c0 -2 -9 0
-20 6 -11 6 -20 13 -20 16 0 2 9 0 20 -6 11 -6 20 -13 20 -16z m-2300 -99 c0
-8 -4 -15 -10 -15 -5 0 -7 7 -4 15 4 8 8 15 10 15 2 0 4 -7 4 -15z m175 -15
c3 -5 -1 -10 -9 -10 -9 0 -16 5 -16 10 0 6 4 10 9 10 6 0 13 -4 16 -10z m25
-24 c0 -3 -4 -8 -10 -11 -5 -3 -10 -1 -10 4 0 6 5 11 10 11 6 0 10 -2 10 -4z
m2140 -62 c0 -8 -4 -12 -10 -9 -5 3 -10 13 -10 21 0 8 5 12 10 9 6 -3 10 -13
10 -21z m-133 -66 c-3 -8 -6 -5 -6 6 -1 11 2 17 5 13 3 -3 4 -12 1 -19z
m-2047 -38 c0 -5 -4 -10 -10 -10 -5 0 -10 5 -10 10 0 6 5 10 10 10 6 0 10 -4
10 -10z m-123 -142 c-2 -13 -4 -5 -4 17 -1 22 1 32 4 23 2 -10 2 -28 0 -40z
m80 -50 c-3 -8 -6 -5 -6 6 -1 11 2 17 5 13 3 -3 4 -12 1 -19z m-70 -40 c-3 -8
-6 -5 -6 6 -1 11 2 17 5 13 3 -3 4 -12 1 -19z m1893 -83 c0 -2 -10 -10 -22
-16 -21 -11 -22 -11 -9 4 13 16 31 23 31 12z m78 -2 c-10 -2 -26 -2 -35 0 -10
3 -2 5 17 5 19 0 27 -2 18 -5z m-2363 -44 c10 -15 -27 -51 -127 -126 -48 -36
-89 -71 -92 -79 -7 -18 -85 -57 -102 -50 -33 12 -6 88 46 132 45 37 61 47 140
85 36 17 72 34 80 39 21 12 48 12 55 -1z m495 -103 c0 -3 -4 -8 -10 -11 -5 -3
-10 -1 -10 4 0 6 5 11 10 11 6 0 10 -2 10 -4z m-570 -110 c0 -3 -4 -8 -10 -11
-5 -3 -10 -1 -10 4 0 6 5 11 10 11 6 0 10 -2 10 -4z m-38 -38 c-7 -7 -12 -8
-12 -2 0 14 12 26 19 19 2 -3 -1 -11 -7 -17z m58 12 c0 -5 -4 -10 -10 -10 -5
0 -10 5 -10 10 0 6 5 10 10 10 6 0 10 -4 10 -10z m2170 -286 c0 -8 -5 -12 -10
-9 -6 4 -8 11 -5 16 9 14 15 11 15 -7z m-1653 -36 c-3 -8 -6 -5 -6 6 -1 11 2
17 5 13 3 -3 4 -12 1 -19z m30 -74 c-3 -3 -12 -4 -19 -1 -8 3 -5 6 6 6 11 1
17 -2 13 -5z m1499 -51 c-10 -10 -19 5 -10 18 6 11 8 11 12 0 2 -7 1 -15 -2
-18z m934 7 c0 -5 -2 -10 -4 -10 -3 0 -8 5 -11 10 -3 6 -1 10 4 10 6 0 11 -4
11 -10z m-275 -10 c3 -5 1 -10 -4 -10 -6 0 -11 5 -11 10 0 6 2 10 4 10 3 0 8
-4 11 -10z m345 -20 c0 -5 -4 -10 -10 -10 -5 0 -10 5 -10 10 0 6 5 10 10 10 6
0 10 -4 10 -10z m-2485 -31 c101 -14 249 -28 410 -38 77 -6 158 -12 180 -15
22 -3 81 -10 130 -16 50 -6 126 -15 170 -20 44 -6 131 -14 193 -19 115 -10
189 -23 310 -57 14 -4 16 -60 2 -69 -5 -3 -10 -15 -10 -26 0 -11 -10 -44 -23
-72 -36 -81 -49 -118 -56 -167 -4 -25 -14 -58 -23 -75 -34 -62 -68 -148 -68
-172 0 -14 -11 -46 -24 -72 -39 -75 -57 -121 -61 -149 -3 -26 -57 -138 -76
-156 -5 -6 -9 -20 -9 -33 0 -13 -14 -49 -31 -81 -18 -31 -40 -72 -50 -91 -10
-19 -23 -39 -29 -45 -13 -13 -79 -9 -130 9 -23 8 -53 15 -65 15 -20 0 -60 14
-150 54 -16 7 -55 21 -85 31 -30 10 -64 23 -75 30 -11 6 -45 21 -75 33 -104
40 -245 104 -465 211 -121 60 -231 112 -245 116 -14 4 -32 13 -40 20 -8 7 -46
30 -85 50 -38 20 -101 54 -140 76 -38 21 -80 43 -92 49 -13 5 -23 14 -23 20 0
5 -7 10 -15 10 -16 0 -60 25 -83 47 -7 7 -21 17 -30 23 -16 9 -16 11 1 24 9 7
17 18 17 23 0 15 149 154 223 208 37 27 67 52 67 57 0 4 8 8 18 8 9 0 34 15
54 34 20 18 51 39 68 46 16 7 30 16 30 20 0 5 17 18 38 31 20 12 67 41 104 65
117 76 129 79 243 63z m1098 -16 c-7 -2 -19 -2 -25 0 -7 3 -2 5 12 5 14 0 19
-2 13 -5z m50 0 c-7 -2 -19 -2 -25 0 -7 3 -2 5 12 5 14 0 19 -2 13 -5z m170
-20 c-13 -2 -33 -2 -45 0 -13 2 -3 4 22 4 25 0 35 -2 23 -4z m44 -19 c-3 -3
-12 -4 -19 -1 -8 3 -5 6 6 6 11 1 17 -2 13 -5z m813 -19 c10 -12 10 -15 -4
-15 -9 0 -16 7 -16 15 0 8 2 15 4 15 2 0 9 -7 16 -15z m-664 -162 c-10 -10
-19 5 -10 18 6 11 8 11 12 0 2 -7 1 -15 -2 -18z m941 5 c-3 -8 -6 -5 -6 6 -1
11 2 17 5 13 3 -3 4 -12 1 -19z m-37 -62 c0 -2 -8 -10 -17 -17 -16 -13 -17
-12 -4 4 13 16 21 21 21 13z m-97 -151 c-3 -9 -8 -14 -10 -11 -3 3 -2 9 2 15
9 16 15 13 8 -4z m-480 -20 c32 -8 67 -15 77 -15 17 0 20 -7 20 -50 0 -45 -3
-51 -29 -65 -16 -8 -43 -31 -60 -52 -27 -32 -31 -46 -31 -94 0 -38 5 -61 15
-69 8 -7 15 -24 15 -37 0 -14 10 -38 23 -54 12 -16 32 -42 45 -58 12 -16 22
-38 22 -48 0 -54 62 -243 80 -243 4 0 22 28 41 63 l35 62 51 -3 c51 -4 52 -3
77 36 14 23 32 44 39 49 18 10 37 47 37 70 0 11 9 38 20 61 11 22 20 57 20 77
0 20 7 52 16 73 19 43 22 149 5 180 -10 18 -8 27 11 54 28 40 38 48 60 48 15
0 17 -19 22 -172 7 -242 21 -429 41 -523 9 -44 20 -109 25 -145 5 -36 12 -76
16 -90 3 -14 8 -39 11 -57 l5 -31 -69 -5 c-37 -3 -99 -10 -138 -17 -38 -6 -86
-13 -105 -16 -19 -3 -141 -8 -270 -11 -192 -4 -254 -2 -345 12 -138 22 -156
30 -149 64 3 14 9 35 14 46 5 11 11 56 14 100 5 69 14 135 29 220 2 12 11 45
20 75 14 48 28 113 32 145 5 37 19 102 25 115 21 39 40 89 40 103 0 9 5 19 10
22 6 3 10 21 10 39 0 33 37 115 68 149 8 9 23 15 31 12 9 -3 43 -12 74 -20z
m-446 -27 c-3 -8 -6 -5 -6 6 -1 11 2 17 5 13 3 -3 4 -12 1 -19z m-20 -30 c-3
-8 -6 -5 -6 6 -1 11 2 17 5 13 3 -3 4 -12 1 -19z m875 -8 c22 0 66 -44 79 -78
10 -26 2 -72 -12 -72 -10 0 -14 8 -23 52 -7 29 -16 40 -64 77 -17 13 -29 28
-26 33 4 6 10 6 17 -1 6 -6 19 -11 29 -11z m-882 -20 c0 -5 -2 -10 -4 -10 -3
0 -8 5 -11 10 -3 6 -1 10 4 10 6 0 11 -4 11 -10z m810 -45 c18 -9 30 -24 30
-35 0 -10 5 -22 10 -25 18 -11 12 -123 -9 -163 -18 -35 -87 -82 -120 -82 -13
0 -15 26 -2 34 18 12 38 104 39 184 1 76 6 102 18 102 3 0 18 -7 34 -15z
m-845 -85 c3 -5 1 -10 -4 -10 -6 0 -11 5 -11 10 0 6 2 10 4 10 3 0 8 -4 11
-10z m605 -36 c0 -14 14 -51 32 -83 35 -63 33 -87 -7 -97 -32 -8 -57 13 -85
70 -27 58 -25 81 11 116 35 33 49 31 49 -6z m-640 -54 c0 -5 -2 -10 -4 -10 -3
0 -8 5 -11 10 -3 6 -1 10 4 10 6 0 11 -4 11 -10z m0 -130 c0 -5 -2 -10 -4 -10
-3 0 -8 5 -11 10 -3 6 -1 10 4 10 6 0 11 -4 11 -10z m-53 -22 c-3 -8 -6 -5 -6
6 -1 11 2 17 5 13 3 -3 4 -12 1 -19z m-1387 -148 c0 -5 -2 -10 -4 -10 -3 0 -8
5 -11 10 -3 6 -1 10 4 10 6 0 11 -4 11 -10z m186 -86 l29 -16 -30 7 c-16 3
-34 11 -39 16 -16 15 9 11 40 -7z m295 -141 c13 -16 12 -17 -3 -4 -10 7 -18
15 -18 17 0 8 8 3 21 -13z m701 -75 c-7 -7 -12 -8 -12 -2 0 14 12 26 19 19 2
-3 -1 -11 -7 -17z m-672 -28 c0 -5 -5 -10 -11 -10 -5 0 -7 5 -4 10 3 6 8 10
11 10 2 0 4 -4 4 -10z m315 -30 c3 -5 1 -10 -4 -10 -6 0 -11 5 -11 10 0 6 2
10 4 10 3 0 8 -4 11 -10z m302 -42 c-3 -8 -6 -5 -6 6 -1 11 2 17 5 13 3 -3 4
-12 1 -19z m-390 -14 c-3 -3 -12 -4 -19 -1 -8 3 -5 6 6 6 11 1 17 -2 13 -5z
m440 -106 c-3 -8 -6 -5 -6 6 -1 11 2 17 5 13 3 -3 4 -12 1 -19z"/>
<path d="M12609 5598 c-18 -43 -19 -209 -1 -231 11 -13 8 -23 -22 -65 -20 -27
-36 -52 -36 -56 0 -10 -101 -105 -140 -132 -85 -57 -212 -78 -295 -49 -22 8
-48 15 -57 15 -31 0 -142 73 -195 127 -29 29 -55 53 -58 53 -11 0 -4 -28 10
-40 8 -7 15 -19 15 -27 0 -29 147 -167 222 -208 64 -34 82 -39 156 -43 54 -3
87 -1 95 7 6 6 21 11 34 11 50 0 301 153 303 185 1 6 15 21 31 34 23 18 33 21
42 12 18 -18 94 -13 143 9 59 27 59 50 0 50 -25 0 -48 5 -51 10 -3 6 -15 10
-27 10 -24 0 -94 58 -119 100 -16 25 -19 51 -19 145 0 63 -4 115 -9 115 -5 0
-15 -15 -22 -32z"/>
<path d="M11384 4658 c-18 -18 -57 -53 -88 -78 -31 -25 -72 -60 -92 -77 -20
-18 -40 -33 -44 -33 -4 0 -29 -20 -56 -45 -26 -25 -53 -45 -61 -45 -7 0 -13
-6 -13 -13 0 -12 -51 -57 -64 -57 -10 0 -146 -137 -146 -146 0 -18 53 -58 125
-95 39 -19 89 -47 112 -62 24 -15 47 -27 53 -27 10 0 72 -28 235 -106 39 -18
99 -43 134 -54 35 -11 78 -29 96 -40 18 -11 40 -20 49 -20 9 0 72 -18 139 -41
67 -22 151 -47 187 -55 36 -8 81 -19 100 -24 100 -25 207 -50 222 -50 11 0 20
11 24 28 6 23 19 51 65 144 5 10 9 27 9 38 0 11 4 28 9 38 40 71 91 192 91
213 0 14 4 29 9 35 16 15 81 152 81 169 0 9 16 45 35 80 42 76 41 115 -4 115
-15 0 -31 3 -35 8 -4 4 -44 12 -89 19 -45 6 -100 16 -122 21 -70 17 -148 34
-225 47 -41 7 -124 25 -185 40 -60 15 -132 30 -160 35 -45 7 -132 26 -240 52
-96 24 -118 22 -151 -14z"/>
<path d="M12661 4505 c-16 -14 -28 -31 -26 -38 2 -7 6 -32 8 -56 7 -69 57 -92
111 -50 41 32 34 116 -14 156 -23 19 -46 15 -79 -12z m99 -42 c0 -20 -43 -54
-64 -51 -10 2 -24 11 -30 21 -9 15 -6 22 16 42 24 20 31 22 53 12 13 -7 25
-17 25 -24z"/>
<path d="M11735 6590 c-3 -5 -16 -10 -28 -11 -13 0 -38 -20 -61 -45 -33 -38
-36 -45 -21 -50 10 -4 25 -3 34 3 9 6 36 14 59 18 23 4 44 11 48 16 3 5 32 9
65 9 46 0 59 3 59 15 0 8 -6 15 -13 15 -8 0 -22 9 -32 20 -20 22 -98 29 -110
10z"/>
<path d="M8571 5716 c-7 -8 -25 -18 -41 -21 -19 -4 -30 -14 -34 -31 -4 -15
-14 -24 -26 -24 -21 0 -29 -34 -10 -45 6 -3 7 -17 4 -29 -4 -18 -1 -25 14 -28
17 -5 19 -13 17 -67 -2 -42 2 -64 11 -72 10 -8 12 -22 8 -45 -5 -30 -4 -34 14
-34 33 0 52 11 52 30 0 10 -6 20 -12 23 -10 3 -10 9 -2 23 8 13 8 24 1 36 -8
12 -8 23 0 40 15 28 14 78 0 96 -7 9 -7 16 1 24 16 16 34 -1 28 -27 -4 -14 0
-28 9 -35 8 -7 15 -22 15 -34 0 -12 6 -28 12 -34 10 -10 10 -17 0 -32 -17 -28
-16 -30 18 -30 17 0 30 4 30 9 0 5 16 15 35 21 30 10 40 24 37 50 -1 3 -10 29
-21 58 -11 30 -18 59 -15 66 10 27 -25 84 -66 105 -48 25 -63 26 -79 7z"/>
<path d="M6890 5470 c0 -6 4 -10 9 -10 5 0 11 -9 14 -19 6 -22 54 -45 117 -56
24 -4 58 -14 76 -21 39 -16 74 -18 74 -4 0 6 -5 10 -10 10 -6 0 -27 11 -48 24
-20 12 -71 33 -112 45 -41 13 -85 27 -97 32 -15 5 -23 5 -23 -1z"/>
<path d="M9032 5445 c-12 -15 -30 -25 -46 -25 -14 0 -26 -4 -26 -10 0 -5 9
-10 21 -10 31 0 59 -18 59 -38 0 -18 49 -62 68 -62 13 0 21 56 15 101 -4 27
-12 40 -32 50 -14 7 -29 15 -32 17 -4 1 -16 -9 -27 -23z"/>
<path d="M8912 5408 c3 -7 13 -15 22 -16 12 -3 17 1 14 10 -3 7 -13 15 -22 16
-12 3 -17 -1 -14 -10z"/>
<path d="M8820 5399 c0 -5 5 -7 10 -4 6 3 10 8 10 11 0 2 -4 4 -10 4 -5 0 -10
-5 -10 -11z"/>
<path d="M8965 5370 c-3 -5 -2 -10 4 -10 5 0 13 5 16 10 3 6 2 10 -4 10 -5 0
-13 -4 -16 -10z"/>
<path d="M7065 5339 c-4 -6 -4 -13 -1 -16 8 -8 36 5 36 17 0 13 -27 13 -35 -1z"/>
<path d="M7621 5306 c-6 -8 -23 -17 -36 -20 -14 -4 -25 -10 -25 -15 0 -5 9 -7
19 -4 17 4 20 -2 23 -49 4 -41 1 -56 -11 -65 -12 -9 -15 -24 -13 -54 4 -38 6
-40 30 -34 59 15 92 34 92 54 0 11 -4 22 -9 25 -4 3 -11 25 -14 48 -18 121
-30 146 -56 114z"/>
<path d="M7067 5223 c-14 -13 -6 -33 12 -33 19 0 35 23 24 34 -8 8 -28 8 -36
-1z"/>
<path d="M8805 5190 c-3 -5 -2 -10 4 -10 5 0 13 5 16 10 3 6 2 10 -4 10 -5 0
-13 -4 -16 -10z"/>
<path d="M8705 5167 c-12 -10 -14 -16 -7 -21 7 -4 12 -18 12 -32 0 -14 5 -34
11 -45 5 -11 11 -51 11 -90 1 -44 6 -74 15 -81 23 -19 16 -39 -12 -32 -16 4
-25 2 -25 -6 0 -7 6 -10 14 -7 8 3 32 -10 54 -29 48 -41 95 -46 113 -12 9 17
8 39 -6 102 -9 45 -21 90 -25 102 -5 12 -11 46 -15 77 -5 36 -12 57 -20 57 -7
0 -18 7 -25 15 -15 19 -70 20 -95 2z"/>
<path d="M7000 5140 c-11 -11 -20 -24 -20 -30 0 -16 27 -12 34 5 3 8 12 15 21
15 19 0 20 16 0 24 -9 3 -24 -3 -35 -14z"/>
<path d="M6925 5081 c-3 -5 -1 -12 5 -16 12 -7 30 2 30 16 0 12 -27 12 -35 0z"/>
<path d="M7983 5083 c-30 -4 -31 -6 -28 -46 2 -23 8 -55 14 -70 9 -24 16 -28
43 -25 25 2 33 8 33 23 0 11 4 26 8 33 5 7 2 14 -8 18 -12 5 -13 10 -5 20 12
13 -3 56 -18 52 -4 0 -21 -3 -39 -5z"/>
<path d="M8683 5013 c-18 -6 -16 -23 1 -23 17 0 30 16 19 23 -5 2 -14 2 -20 0z"/>
<path d="M8642 4871 c4 -13 18 -16 19 -4 0 4 -5 9 -11 12 -7 2 -11 -2 -8 -8z"/>
<path d="M7396 4735 c-6 -17 16 -31 33 -21 13 9 2 36 -14 36 -7 0 -16 -7 -19
-15z"/>
<path d="M7130 4348 c1 -28 52 -51 123 -56 49 -3 68 -2 63 6 -8 14 -115 54
-126 47 -5 -3 -11 -1 -15 5 -9 14 -45 12 -45 -2z"/>
<path d="M6178 4265 c-7 -8 0 -134 8 -147 14 -22 126 -59 145 -48 19 12 -4 57
-36 72 -14 6 -25 17 -25 23 0 17 -84 108 -92 100z"/>
<path d="M7010 3850 c0 -5 5 -10 11 -10 5 0 7 5 4 10 -3 6 -8 10 -11 10 -2 0
-4 -4 -4 -10z"/>
<path d="M6941 3824 c0 -11 3 -14 6 -6 3 7 2 16 -1 19 -3 4 -6 -2 -5 -13z"/>
<path d="M6805 3781 c-44 -3 -75 -9 -70 -12 17 -10 170 -5 173 6 4 12 -4 13
-103 6z"/>
<path d="M13230 1843 c-19 -3 -39 -9 -45 -14 -8 -8 11 -8 113 0 6 1 12 6 12
11 0 10 -14 10 -80 3z"/>
<path d="M13070 1816 c0 -7 7 -19 15 -26 13 -10 15 -9 15 8 0 16 6 20 30 20
17 -1 33 2 37 5 3 4 -17 7 -45 7 -38 0 -52 -4 -52 -14z"/>
<path d="M13350 1800 c0 -5 5 -10 10 -10 6 0 10 5 10 10 0 6 -4 10 -10 10 -5
0 -10 -4 -10 -10z"/>
</g>
</svg>
